<svg id="Layer_1" data-name="Layer 1" xmlns="http://www.w3.org/2000/svg" viewBox="0 0 248.85 65"><defs>



	<style>
		.cls-1,.cls-6{fill:#f89939;}.cls-1,.cls-2,.cls-5{opacity:0.5;}.cls-2,.cls-3{fill:#7798c9;}
		.cls-4,.cls-5{fill:#f89939;}.cls-7{fill:#30408c;}.cls-8{fill:#f2cc30;}.cls-9{fill:#797c87;}</style>



</defs><title>EUPublications_logo</title><rect class="cls-1" x="5.91" y="41.36" width="65" height="5.91"/><rect class="cls-2" x="5.91" width="65" height="5.91"/><rect class="cls-3" x="11.82" width="53.18" height="5.91"/><rect class="cls-4" x="65" y="5.91" width="5.91" height="35.45"/><rect class="cls-5" x="70.91" y="5.91" width="5.91" height="35.45"/><rect class="cls-3" x="5.91" y="5.91" width="5.91" height="35.45"/><rect class="cls-2" y="5.91" width="5.91" height="35.45"/><polygon class="cls-6" points="35.45 47.27 65 47.27 65 41.36 11.82 41.36 11.82 47.27 23.64 47.27 23.64 53.18 29.55 53.18 29.55 59.09 35.45 59.09 35.45 47.27"/><rect class="cls-6" x="35.45" y="59.09" width="5.91" height="5.91"/><rect class="cls-7" x="11.82" y="5.91" width="53.18" height="35.45"/><polygon class="cls-8" points="37.13 13.96 38.41 13.02 39.71 13.96 39.22 12.44 40.53 11.49 38.91 11.49 38.41 9.95 37.92 11.5 36.31 11.49 37.62 12.44 37.13 13.96"/><polygon class="cls-8" points="31.28 15.53 32.58 14.59 33.87 15.53 33.38 14.01 34.69 13.06 33.07 13.06 32.57 11.52 32.08 13.06 30.46 13.06 31.77 14.01 31.28 15.53"/><polygon class="cls-8" points="28.3 15.8 27.81 17.34 26.19 17.34 27.5 18.29 27.01 19.81 28.3 18.87 29.59 19.81 29.1 18.29 30.41 17.34 28.8 17.34 28.3 15.8"/><polygon class="cls-8" points="26.73 24.7 28.02 25.64 27.53 24.12 28.84 23.17 27.23 23.17 26.73 21.63 26.24 23.18 24.62 23.17 25.93 24.12 25.44 25.64 26.73 24.7"/><polygon class="cls-8" points="28.8 29.02 28.3 27.48 27.81 29.02 26.19 29.02 27.5 29.96 27.01 31.49 28.3 30.55 29.59 31.49 29.1 29.96 30.41 29.02 28.8 29.02"/><polygon class="cls-8" points="33.08 33.3 32.58 31.76 32.09 33.3 30.47 33.3 31.78 34.24 31.29 35.77 32.58 34.83 33.88 35.77 33.38 34.24 34.69 33.3 33.08 33.3"/><polygon class="cls-8" points="38.91 34.85 38.42 33.31 37.92 34.85 36.31 34.85 37.62 35.8 37.13 37.32 38.42 36.38 39.71 37.32 39.22 35.8 40.53 34.85 38.91 34.85"/><polygon class="cls-8" points="44.74 33.3 44.25 31.76 43.76 33.3 42.14 33.3 43.45 34.24 42.96 35.77 44.25 34.83 45.54 35.77 45.05 34.24 46.36 33.3 44.74 33.3"/><polygon class="cls-8" points="49.03 29.02 48.53 27.48 48.04 29.02 46.42 29.02 47.73 29.96 47.24 31.49 48.53 30.55 49.83 31.49 49.33 29.96 50.65 29.02 49.03 29.02"/><polygon class="cls-8" points="52.2 23.16 50.58 23.16 50.08 21.61 49.59 23.16 47.97 23.16 49.29 24.1 48.8 25.62 50.08 24.68 51.38 25.62 50.89 24.1 52.2 23.16"/><polygon class="cls-8" points="47.24 19.79 48.53 18.85 49.83 19.79 49.33 18.27 50.65 17.33 49.03 17.33 48.53 15.78 48.04 17.33 46.42 17.33 47.73 18.27 47.24 19.79"/><polygon class="cls-8" points="44.27 11.52 43.77 13.07 42.16 13.06 43.47 14.01 42.98 15.53 44.27 14.59 45.56 15.53 45.07 14.01 46.38 13.06 44.76 13.06 44.27 11.52"/><path class="cls-9" d="M107.8,50.61V33.23h9.12v2.28h-6.46v5.11h5.88v2.24h-5.88v5.47h6.46v2.28Z" transform="translate(-18.59 -26.97)"/><path class="cls-9" d="M125.58,50.85c-3.26,0-5.78-1.94-5.78-5.3V33.23h2.71V45.57a3.08,3.08,0,0,0,6.15,0V33.23h2.71V45.55C131.37,48.91,128.85,50.85,125.58,50.85Z" transform="translate(-18.59 -26.97)"/><path class="cls-6" d="M145.6,43.75a12.86,12.86,0,0,1-1.83-.15v7h-2.66V33.88a11.67,11.67,0,0,1,4.8-.91c4.15,0,6.43,2.11,6.43,5.42C152.34,41.49,150,43.75,145.6,43.75Zm.33-8.69a6.25,6.25,0,0,0-2.16.36v6.09a10.56,10.56,0,0,0,1.73.12c2.72,0,4.18-1.24,4.18-3.26C149.68,36.19,148.36,35.06,145.93,35.06Z" transform="translate(-18.59 -26.97)"/><path class="cls-6" d="M160.1,50.87c-3.41,0-5.24-1.41-5.24-4.65V37.67h2.62v8.6c0,1.65.89,2.44,2.62,2.44a6.19,6.19,0,0,0,2.3-.36V37.67H165V50A12.15,12.15,0,0,1,160.1,50.87Z" transform="translate(-18.59 -26.97)"/><path class="cls-6" d="M172.57,50.87a10.33,10.33,0,0,1-4.34-.91V31.77h2.62V38a6.55,6.55,0,0,1,2.52-.53c3.33,0,5.59,2.4,5.59,6.36C179,48.71,176.44,50.87,172.57,50.87Zm.34-11.35a5,5,0,0,0-2.06.43v8.5a5.11,5.11,0,0,0,1.87.34c2.09,0,3.62-1.44,3.62-4.76C176.34,41.2,175,39.52,172.91,39.52Z" transform="translate(-18.59 -26.97)"/><path class="cls-6" d="M181.79,50.61V31.77h2.64V50.61Z" transform="translate(-18.59 -26.97)"/><path class="cls-6" d="M189.11,35.32a1.49,1.49,0,1,1,1.56-1.49A1.53,1.53,0,0,1,189.11,35.32Zm-1.32,15.29V37.67h2.64V50.61Z" transform="translate(-18.59 -26.97)"/><path class="cls-6" d="M198.93,50.87c-2.88,0-5.69-2.06-5.69-6.74s2.81-6.72,5.69-6.72a5.89,5.89,0,0,1,3.31.89l-.87,1.89a3.73,3.73,0,0,0-2.11-.62c-1.73,0-3.31,1.37-3.31,4.54s1.63,4.56,3.31,4.56a3.66,3.66,0,0,0,2.11-.63l.87,2A5.8,5.8,0,0,1,198.93,50.87Z" transform="translate(-18.59 -26.97)"/><path class="cls-6" d="M209.68,50.87c-3.72,0-5.59-1.51-5.59-4,0-3.6,3.84-4.25,7.75-4.47v-.81c0-1.64-1.08-2.21-2.74-2.21a9.38,9.38,0,0,0-3.57.79l-.68-1.8a12.07,12.07,0,0,1,4.52-.91c3.09,0,5,1.2,5,4.39V50A11.11,11.11,0,0,1,209.68,50.87Zm2.16-6.76c-2.64.14-5.28.36-5.28,2.66,0,1.37,1.05,2.21,3.05,2.21a6.65,6.65,0,0,0,2.23-.34Z" transform="translate(-18.59 -26.97)"/><path class="cls-6" d="M221.82,50.78c-2.28,0-3.55-1.27-3.55-3.79V39.64h-1.75v-2h1.75v-3l2.57-.79v3.79h2.61v2h-2.61v7.2a1.52,1.52,0,0,0,1.73,1.63,2.51,2.51,0,0,0,.88-.16v2.18A4.49,4.49,0,0,1,221.82,50.78Z" transform="translate(-18.59 -26.97)"/><path class="cls-6" d="M227.34,35.32a1.49,1.49,0,1,1,1.56-1.49A1.53,1.53,0,0,1,227.34,35.32ZM226,50.61V37.67h2.64V50.61Z" transform="translate(-18.59 -26.97)"/><path class="cls-6" d="M237.16,50.87c-3.67,0-5.69-2.9-5.69-6.74s2-6.72,5.69-6.72,5.69,2.88,5.69,6.72S240.83,50.87,237.16,50.87Zm0-11.37c-2,0-3,1.82-3,4.61s1,4.63,3,4.63,3.05-1.85,3.05-4.63S239.2,39.5,237.16,39.5Z" transform="translate(-18.59 -26.97)"/><path class="cls-6" d="M253.29,50.61V42c0-1.51-.92-2.45-2.72-2.45a6.92,6.92,0,0,0-2.37.38V50.61h-2.62V38.32a13.09,13.09,0,0,1,5-.91c3.62,0,5.38,1.58,5.38,4.32v8.88Z" transform="translate(-18.59 -26.97)"/><path class="cls-6" d="M262.43,50.87a9.16,9.16,0,0,1-4-.91l.88-2a7.34,7.34,0,0,0,3.08.84c1.41,0,2.35-.7,2.35-1.78s-1-1.63-2.3-2.11c-1.73-.65-3.68-1.44-3.68-3.87,0-2.13,1.66-3.62,4.54-3.62a7.56,7.56,0,0,1,3.77.91l-.82,1.83a5.67,5.67,0,0,0-2.66-.77c-1.37,0-2.14.72-2.14,1.65,0,1.18,1,1.59,2.23,2.07,1.8.67,3.8,1.41,3.8,3.93C267.45,49.36,265.67,50.87,262.43,50.87Z" transform="translate(-18.59 -26.97)"/><path class="cls-9" d="M114,68.61,113,65.74H109L108,68.61h-1.77L110,57.75h2l3.75,10.86Zm-2.64-8.17a10,10,0,0,1-.32-1.29h0a12.58,12.58,0,0,1-.31,1.29l-1.31,4h3.27Z" transform="translate(-18.59 -26.97)"/><path class="cls-9" d="M117,68.61V56.84h1.65V68.61Z" transform="translate(-18.59 -26.97)"/><path class="cls-9" d="M120.9,68.61V56.84h1.65V68.61Z" transform="translate(-18.59 -26.97)"/><path class="cls-9" d="M129.37,59.06a.93.93,0,1,1,1-.93A1,1,0,0,1,129.37,59.06Zm-.82,9.55V60.53h1.65v8.08Z" transform="translate(-18.59 -26.97)"/><path class="cls-9" d="M137.07,68.61v-5.4c0-.94-.57-1.53-1.7-1.53a4.1,4.1,0,0,0-1.48.24v6.69h-1.64V60.93a8.22,8.22,0,0,1,3.11-.57c2.26,0,3.36,1,3.36,2.7v5.55Z" transform="translate(-18.59 -26.97)"/><path class="cls-9" d="M147.88,68.78c-2.29,0-3.55-1.82-3.55-4.22s1.26-4.2,3.55-4.2,3.56,1.8,3.56,4.2S150.18,68.78,147.88,68.78Zm0-7.11c-1.27,0-1.9,1.14-1.9,2.88s.63,2.89,1.9,2.89,1.91-1.16,1.91-2.89S149.16,61.67,147.88,61.67Z" transform="translate(-18.59 -26.97)"/><path class="cls-9" d="M158,68.61v-5.4c0-.94-.57-1.53-1.69-1.53a4.16,4.16,0,0,0-1.49.24v6.69h-1.63V60.93a8.17,8.17,0,0,1,3.1-.57c2.27,0,3.36,1,3.36,2.7v5.55Z" transform="translate(-18.59 -26.97)"/><path class="cls-9" d="M168.3,64.53l-5.37.75a2.28,2.28,0,0,0,2.47,2.19,5.11,5.11,0,0,0,2.24-.49l.48,1.22a6.59,6.59,0,0,1-2.82.58c-2.55,0-4-1.64-4-4.22s1.38-4.2,3.65-4.2c2.1,0,3.34,1.38,3.34,3.56C168.31,64.11,168.31,64.32,168.3,64.53Zm-3.36-3c-1.26,0-2.09,1-2.12,2.64l3.92-.54C166.72,62.25,166,61.56,164.94,61.56Z" transform="translate(-18.59 -26.97)"/><path class="cls-9" d="M176.88,68.7a4.42,4.42,0,0,1-1.32-.2v3.33h-1.64V60.93a6.65,6.65,0,0,1,2.78-.57c2.52,0,3.93,1.58,3.93,4.14S179.32,68.7,176.88,68.7Zm-.15-7.05a3.36,3.36,0,0,0-1.17.21v5.38a3.68,3.68,0,0,0,1.17.19c1.48,0,2.26-1.24,2.26-2.93S178.2,61.65,176.73,61.65Z" transform="translate(-18.59 -26.97)"/><path class="cls-9" d="M182.4,68.61V56.84h1.65V68.61Z" transform="translate(-18.59 -26.97)"/><path class="cls-9" d="M189.2,68.78c-2.32,0-3.49-1-3.49-2.54,0-2.25,2.4-2.65,4.85-2.79v-.51c0-1-.68-1.38-1.71-1.38a5.82,5.82,0,0,0-2.24.5l-.42-1.13a7.67,7.67,0,0,1,2.82-.57c1.94,0,3.11.75,3.11,2.75V68.2A7,7,0,0,1,189.2,68.78Zm1.36-4.23c-1.65.09-3.3.22-3.3,1.66,0,.86.66,1.38,1.9,1.38a4.17,4.17,0,0,0,1.4-.21Z" transform="translate(-18.59 -26.97)"/><path class="cls-9" d="M197.38,68.78c-1.8,0-3.55-1.29-3.55-4.22s1.75-4.2,3.55-4.2a3.66,3.66,0,0,1,2.07.56l-.54,1.18a2.32,2.32,0,0,0-1.32-.39c-1.08,0-2.07.86-2.07,2.84s1,2.85,2.07,2.85a2.39,2.39,0,0,0,1.32-.39l.54,1.21A3.56,3.56,0,0,1,197.38,68.78Z" transform="translate(-18.59 -26.97)"/><path class="cls-9" d="M207.37,64.53l-5.37.75a2.28,2.28,0,0,0,2.48,2.19,5.06,5.06,0,0,0,2.23-.49l.48,1.22a6.59,6.59,0,0,1-2.82.58c-2.55,0-4-1.64-4-4.22s1.38-4.2,3.64-4.2c2.1,0,3.34,1.38,3.34,3.56C207.38,64.11,207.38,64.32,207.37,64.53Zm-3.36-3c-1.26,0-2.08,1-2.11,2.64l3.91-.54C205.79,62.25,205.09,61.56,204,61.56Z" transform="translate(-18.59 -26.97)"/></svg>